<?xml version="1.0" standalone="no"?>
<!DOCTYPE svg PUBLIC "-//W3C//DTD SVG 20010904//EN"
 "http://www.w3.org/TR/2001/REC-SVG-20010904/DTD/svg10.dtd">
<svg version="1.0" xmlns="http://www.w3.org/2000/svg"
 width="910.000000pt" height="910.000000pt" viewBox="0 0 910.000000 910.000000"
 preserveAspectRatio="xMidYMid meet">
<metadata>
Created by potrace 1.14, written by Peter Selinger 2001-2017
</metadata>
<g transform="translate(0.000000,910.000000) scale(0.100000,-0.100000)"
fill="#000000" stroke="none">
<path d="M4359 8826 c-2 -2 -49 -7 -104 -11 -55 -3 -107 -8 -115 -10 -8 -2
-40 -7 -70 -10 -93 -11 -184 -24 -260 -40 -14 -2 -41 -7 -60 -10 -50 -8 -305
-71 -370 -92 -30 -9 -57 -17 -60 -18 -79 -21 -283 -92 -345 -120 -16 -7 -52
-22 -80 -33 -27 -11 -90 -39 -140 -62 -49 -23 -99 -46 -110 -51 -91 -40 -433
-240 -496 -290 -20 -16 -40 -29 -43 -29 -12 0 -266 -193 -266 -202 0 -4 -6 -8
-14 -8 -8 0 -16 -3 -18 -7 -1 -5 -34 -35 -73 -68 -139 -118 -307 -283 -405
-395 -30 -34 -62 -70 -70 -79 -9 -9 -36 -41 -60 -71 -25 -30 -49 -60 -55 -67
-20 -25 -31 -39 -70 -93 -22 -30 -43 -56 -47 -58 -5 -2 -8 -10 -8 -17 0 -7 -4
-15 -8 -17 -5 -1 -31 -37 -58 -78 -27 -41 -52 -77 -55 -80 -6 -6 -109 -180
-151 -255 -40 -72 -150 -299 -183 -375 -15 -36 -31 -74 -36 -85 -45 -103 -132
-362 -173 -515 -32 -121 -69 -292 -82 -375 -3 -22 -10 -61 -14 -86 -5 -26 -12
-80 -16 -120 -3 -41 -8 -76 -9 -79 -10 -16 -20 -254 -20 -460 0 -211 6 -359
19 -445 2 -16 7 -55 10 -85 9 -74 20 -150 30 -206 6 -31 33 -170 42 -210 67
-325 266 -849 430 -1134 14 -25 47 -81 72 -125 66 -114 266 -410 302 -445 3
-3 17 -21 31 -40 15 -19 35 -45 45 -56 11 -12 37 -43 59 -70 62 -74 121 -138
226 -243 96 -96 219 -212 219 -206 0 2 15 -11 33 -28 18 -18 48 -43 65 -57 18
-14 43 -33 55 -44 12 -10 56 -43 97 -74 41 -31 77 -59 80 -62 3 -3 68 -46 145
-96 175 -114 290 -181 425 -248 41 -21 83 -42 94 -48 38 -20 274 -121 351
-150 210 -78 489 -160 655 -192 214 -41 224 -43 286 -51 260 -35 387 -42 679
-39 160 1 301 5 315 7 14 3 59 8 100 12 132 12 343 45 460 72 36 8 76 17 90
19 14 3 33 7 42 10 9 3 26 7 37 9 32 7 53 13 89 24 18 5 36 11 40 12 4 1 12 3
17 5 9 3 184 56 195 59 3 1 18 7 33 13 16 7 32 12 36 12 44 0 572 243 705 324
32 20 62 36 67 36 5 0 9 5 9 10 0 6 5 10 11 10 8 0 151 87 184 112 6 5 48 35
95 68 47 32 96 68 110 79 14 10 43 33 65 50 58 45 106 84 119 96 6 6 51 46
101 90 128 114 301 291 410 420 14 17 33 39 43 50 20 22 101 129 117 153 6 8
17 23 25 33 29 34 37 46 49 66 6 12 17 27 24 35 18 18 127 190 188 295 137
235 294 584 372 828 39 123 114 394 121 440 2 17 9 50 14 75 6 25 13 63 16 85
4 22 8 47 11 55 2 8 6 36 9 63 15 119 18 144 21 166 27 167 27 721 0 931 -3
19 -7 55 -10 80 -6 47 -41 267 -50 310 -12 62 -37 168 -46 197 -5 18 -12 41
-14 52 -14 72 -117 394 -150 466 -8 17 -29 69 -49 116 -45 113 -148 323 -208
427 -26 46 -48 88 -48 93 0 5 -3 9 -8 9 -7 0 -13 10 -42 66 -8 16 -17 31 -20
34 -12 12 -70 101 -70 109 0 4 -9 16 -20 26 -11 10 -20 24 -20 31 0 7 -6 17
-13 21 -6 4 -26 28 -42 53 -17 25 -42 59 -57 75 -16 17 -28 33 -28 36 0 3 -8
15 -17 26 -10 11 -36 42 -58 69 -151 181 -350 387 -500 514 -131 112 -170 143
-240 195 -91 67 -274 195 -280 195 -2 0 -24 14 -48 30 -25 17 -50 30 -56 30
-6 0 -11 4 -11 8 0 5 -19 18 -42 30 -76 40 -127 69 -144 83 -10 8 -19 13 -20
12 -2 -1 -68 29 -147 67 -292 141 -667 272 -942 330 -126 26 -204 42 -235 46
-19 2 -57 8 -85 14 -27 5 -97 14 -155 20 -58 6 -121 13 -140 16 -41 6 -625 15
-631 10z"/>
</g>
</svg>
